<svg id="Layer_1" data-name="Layer 1" xmlns="http://www.w3.org/2000/svg" viewBox="0 0 664.23 138.52"><defs><style>.cls-1{fill:#434343;}.cls-2{fill:#fff;}</style></defs><title>SVG</title><path class="cls-1" d="M294.16,329.34c-7.45,0-13.88-.75-17-1.83-.5-.18-1,.24-.76.62,2.78,4.1,7.61,8.28,9.57,13.19,2.75,6.89,3.19,21.6,3.25,24.09a.64.64,0,0,0,.44.55,11.07,11.07,0,0,0,9,0,.64.64,0,0,0,.44-.55c.05-2.49.49-17.2,3.25-24.09,2-4.9,6.79-9.08,9.57-13.19.26-.38-.26-.79-.76-.62C308,328.59,301.61,329.34,294.16,329.34Z" transform="translate(-88.83 -228.38)"/><path class="cls-1" d="M133.79,295.54a9.47,9.47,0,0,0-3.63-8q-3.64-2.8-13.11-5.65A63.27,63.27,0,0,1,102,275.56Q91.25,268.83,91.25,258A19.1,19.1,0,0,1,99,242.38q7.73-6.14,20.06-6.14a33.89,33.89,0,0,1,14.59,3,24,24,0,0,1,10.07,8.59,22,22,0,0,1,3.66,12.36H133.79q0-6.09-3.85-9.53t-11-3.44q-6.68,0-10.37,2.84a9.45,9.45,0,0,0-3.69,7.94,8.55,8.55,0,0,0,4,7.16q4,2.87,13.14,5.58a60.18,60.18,0,0,1,14.7,6.18,23.39,23.39,0,0,1,8.13,8,20.76,20.76,0,0,1,2.58,10.53A18.66,18.66,0,0,1,139.91,311q-7.51,5.79-20.38,5.79a38.3,38.3,0,0,1-15.64-3.15A26.28,26.28,0,0,1,92.79,305a21.67,21.67,0,0,1-4-12.92h13.62q0,6.68,4.42,10.34T119.52,306q7.11,0,10.69-2.88A9.3,9.3,0,0,0,133.79,295.54Z" transform="translate(-88.83 -228.38)"/><path class="cls-1" d="M180,243.3v14.16h10.29v9.69H180v32.53q0,3.34,1.32,4.82t4.71,1.48a20.15,20.15,0,0,0,4.58-.54v10.13a32.26,32.26,0,0,1-8.62,1.24q-15.08,0-15.08-16.64v-33h-9.59v-9.69h9.59V243.3Z" transform="translate(-88.83 -228.38)"/><path class="cls-1" d="M236.32,269.42A32.4,32.4,0,0,0,231,269q-9,0-12.12,6.89v39.85H205.79V257.46h12.49l.32,6.52q4.74-7.59,13.14-7.59a12.26,12.26,0,0,1,4.63.75Z" transform="translate(-88.83 -228.38)"/><path class="cls-1" d="M371.58,290.74l-5.82,6v19H352.67V233h13.09v47.71l4.09-5.12L386,257.46h15.73L380,281.75l24,34H388.86Z" transform="translate(-88.83 -228.38)"/><path class="cls-1" d="M440.31,316.81q-12.44,0-20.17-7.84t-7.73-20.87v-1.62a35,35,0,0,1,3.37-15.59,25.62,25.62,0,0,1,9.45-10.69,25,25,0,0,1,13.57-3.82q11.9,0,18.39,7.59t6.49,21.49v5.28H425.61q.59,7.22,4.82,11.42a14.47,14.47,0,0,0,10.64,4.2,17.72,17.72,0,0,0,14.65-7.27l7.06,6.73a23.56,23.56,0,0,1-9.34,8.11A29.27,29.27,0,0,1,440.31,316.81Zm-1.56-49.92a11,11,0,0,0-8.7,3.77q-3.31,3.77-4.23,10.5h24.93v-1q-.43-6.57-3.5-9.94A10.94,10.94,0,0,0,438.75,266.89Z" transform="translate(-88.83 -228.38)"/><path class="cls-1" d="M509.86,269.42a32.4,32.4,0,0,0-5.33-.43q-9,0-12.12,6.89v39.85H479.33V257.46h12.49l.32,6.52q4.74-7.59,13.14-7.59a12.26,12.26,0,0,1,4.63.75Z" transform="translate(-88.83 -228.38)"/><path class="cls-1" d="M522.48,301.95a7.48,7.48,0,0,1,5.66,2.07,7.21,7.21,0,0,1,2,5.2,7,7,0,0,1-2,5.09,8.82,8.82,0,0,1-11.2,0,6.83,6.83,0,0,1-2-5.12,7.2,7.2,0,0,1,2-5.2A7.4,7.4,0,0,1,522.48,301.95Z" transform="translate(-88.83 -228.38)"/><path class="cls-1" d="M548.35,286.17q0-13.57,6.38-21.68a20.48,20.48,0,0,1,16.94-8.1q10,0,15.67,6.95l.59-5.87h11.79V314q0,11.47-7.14,18.09t-19.25,6.62A31,31,0,0,1,560.82,336a22.23,22.23,0,0,1-9.29-7l6.19-7.86a18.71,18.71,0,0,0,14.86,7.16q6.51,0,10.29-3.53t3.77-10.37v-3.93q-5.66,6.3-15.08,6.3a20.43,20.43,0,0,1-16.72-8.13Q548.35,300.55,548.35,286.17Zm13,1.13q0,8.78,3.58,13.81a11.51,11.51,0,0,0,9.94,5,12.6,12.6,0,0,0,11.74-6.79V273.73q-3.72-6.62-11.63-6.62a11.56,11.56,0,0,0-10,5.12Q561.39,277.34,561.39,287.3Z" transform="translate(-88.83 -228.38)"/><path class="cls-1" d="M616.23,286.06a34.36,34.36,0,0,1,3.39-15.43,24.78,24.78,0,0,1,9.53-10.56,26.86,26.86,0,0,1,14.11-3.69q11.79,0,19.14,7.59t7.94,20.14l.05,3.07a34.67,34.67,0,0,1-3.31,15.4,24.49,24.49,0,0,1-9.48,10.5,27.05,27.05,0,0,1-14.24,3.72q-12.33,0-19.74-8.21t-7.4-21.89Zm13.09,1.13q0,9,3.72,14.08a12.08,12.08,0,0,0,10.34,5.09,12,12,0,0,0,10.31-5.17q3.69-5.17,3.69-15.13,0-8.83-3.8-14a12.8,12.8,0,0,0-20.49-.08Q629.32,277.06,629.32,287.19Z" transform="translate(-88.83 -228.38)"/><path class="cls-1" d="M700.91,315.73H687.82V233h13.09Z" transform="translate(-88.83 -228.38)"/><path class="cls-1" d="M725.27,315.73V267.16h-8.89v-9.69h8.89v-5.33q0-9.69,5.38-15t15.08-5.28a30.24,30.24,0,0,1,7.32,1l-.32,10.23a25.83,25.83,0,0,0-5-.43q-9.37,0-9.37,9.64v5.17h11.85v9.69H738.36v48.58Z" transform="translate(-88.83 -228.38)"/><path class="cls-1" d="M294.16,228.38a48.15,48.15,0,1,0,48.15,48.15A48.2,48.2,0,0,0,294.16,228.38Z" transform="translate(-88.83 -228.38)"/><circle class="cls-2" cx="205.33" cy="48.15" r="43.12"/><path class="cls-1" d="M294.16,295.43c-14.22,0-31.82-3.65-45.33-15.89a45.54,45.54,0,0,0,90.67,0C326,291.78,308.38,295.43,294.16,295.43Z" transform="translate(-88.83 -228.38)"/><path class="cls-1" d="M251.78,279.15l-.15,0-.1.11a3.63,3.63,0,0,0-.28,1.92l0,.81.43-.69,0-.06a.16.16,0,0,1,.2,0c.13.06.4.26.76,1l1,2-.5-2.13C253,281.2,252.48,279.31,251.78,279.15Z" transform="translate(-88.83 -228.38)"/><path class="cls-1" d="M264.13,277.69l.56,1.08-.08-1.21c-.2-2.84-1.79-5-3.7-5h-.12c-1.7.09-3.09,2.06-3.25,4.59l-.08,1.31.56-1.19a3.14,3.14,0,0,1,2.76-2A3.93,3.93,0,0,1,264.13,277.69Z" transform="translate(-88.83 -228.38)"/><path class="cls-1" d="M267.74,262.9c-2.23.28-4.22,2.56-4.62,5.3l-.19,1.32.66-1.16a5.18,5.18,0,0,1,3.92-2.67,4.23,4.23,0,0,1,4.2,2.26l.46.87v-1a5.44,5.44,0,0,0-1.34-3.82A3.56,3.56,0,0,0,267.74,262.9Z" transform="translate(-88.83 -228.38)"/><path class="cls-1" d="M252.27,268.83c.3-.14.51.27.6.52l.46,1.28,0-1.36a4.11,4.11,0,0,0-.4-2.38.36.36,0,0,0-.48-.07c-.48.3-.85,1.61-1,2.16l-.38,1.56.84-1.37A.89.89,0,0,1,252.27,268.83Z" transform="translate(-88.83 -228.38)"/><path class="cls-1" d="M255.08,278.35l-.15-1.57c-.21-2.17-1-3.63-1.91-3.63h0c-.71.08-1.31,1.32-1.48,3.07l-.15,1.53.63-1.41c.15-.33.47-.88,1-.89s1.06.53,1.46,1.45Z" transform="translate(-88.83 -228.38)"/><path class="cls-1" d="M314.29,267.9a4.44,4.44,0,0,1,4.36-2.32,5.34,5.34,0,0,1,4.09,2.72l.65,1.13-.18-1.29c-.39-2.8-2.45-5.11-4.78-5.38a3.77,3.77,0,0,0-3.24,1.18,5.48,5.48,0,0,0-1.37,3.84v1Z" transform="translate(-88.83 -228.38)"/><path class="cls-1" d="M321.15,256.35a3.86,3.86,0,0,0-.7,2.94l.09.89.38-.8a2.54,2.54,0,0,1,3.06-1.32,5.65,5.65,0,0,1,3.12,2.41l1,1.49-.54-1.71c-.69-2.16-2.36-4.07-4-4.53A2.26,2.26,0,0,0,321.15,256.35Z" transform="translate(-88.83 -228.38)"/><path class="cls-1" d="M310.45,255.75a7,7,0,0,1,4.88,2.85l.69,1-.24-1.19a6.87,6.87,0,0,0-5.61-5.23,4.51,4.51,0,0,0-3.9,1.31,4.42,4.42,0,0,0-1.15,3.2l0,.85.44-.72A4.89,4.89,0,0,1,310.45,255.75Z" transform="translate(-88.83 -228.38)"/><path class="cls-1" d="M324.77,253.93l.3-.68c.29-.65,1-.78,1.89-.35a6.2,6.2,0,0,1,1.92,1.63l.41-.28a8.39,8.39,0,0,0-2.9-3.17c-.73-.38-1.33-.33-1.66.1a2.52,2.52,0,0,0-.13,2Z" transform="translate(-88.83 -228.38)"/><path class="cls-1" d="M299.07,257.55l.52.78-.07-.93a6.13,6.13,0,0,0-12.1,0l-.07.94.53-.78a7.22,7.22,0,0,1,11.19,0Z" transform="translate(-88.83 -228.38)"/><path class="cls-1" d="M302.32,264.66h.21a6.71,6.71,0,0,1,5.57,3l.54.88-.07-1a6.44,6.44,0,0,0-6.12-5.92h-.2a5.83,5.83,0,0,0-5.86,5.77l0,.94.48-.8A6.33,6.33,0,0,1,302.32,264.66Z" transform="translate(-88.83 -228.38)"/><path class="cls-1" d="M283.74,264.69H284a6.25,6.25,0,0,1,5.42,2.83l.48.8,0-.94a5.85,5.85,0,0,0-1.68-4,5.74,5.74,0,0,0-4.11-1.7h-.23a6.45,6.45,0,0,0-6.07,5.91l-.08,1,.54-.89A6.67,6.67,0,0,1,283.74,264.69Z" transform="translate(-88.83 -228.38)"/><path class="cls-1" d="M276.14,255.84a4.78,4.78,0,0,1,4.78,2l.43.73,0-.85a4.23,4.23,0,0,0-5-4.47,6.9,6.9,0,0,0-5.55,5.22l-.25,1.2.7-1A6.93,6.93,0,0,1,276.14,255.84Z" transform="translate(-88.83 -228.38)"/><path class="cls-1" d="M256.18,281.06a1.27,1.27,0,0,0-1.16.48,4.29,4.29,0,0,0-.73,2.93l.05,1.19.43-1.11a1.36,1.36,0,0,1,1.57-1,4.2,4.2,0,0,1,2.54,2.25l.78,1.39-.32-1.56C258.85,283.18,257.49,281.23,256.18,281.06Z" transform="translate(-88.83 -228.38)"/><path class="cls-1" d="M254.39,268.84,254,270.6l.84-1.6a3.18,3.18,0,0,1,1.95-1.77,2,2,0,0,1,2.22,1.48l.46,1.09,0-1.18a4.87,4.87,0,0,0-.92-3.33,1.48,1.48,0,0,0-1.52-.47C255.93,265.12,254.83,266.77,254.39,268.84Z" transform="translate(-88.83 -228.38)"/><path class="cls-1" d="M255,261.07a1,1,0,0,1,.47-.14c.41,0,.63.36.73.67l.34,1,.14-1a3.42,3.42,0,0,0-.27-2.39.63.63,0,0,0-.5-.25,1,1,0,0,0-.5.16,6.16,6.16,0,0,0-1.92,2.86l-.91,2.28,1.35-2A3.3,3.3,0,0,1,255,261.07Z" transform="translate(-88.83 -228.38)"/><path class="cls-1" d="M298.64,278.24l.49.83,0-1a6.35,6.35,0,0,0-12.69,0l0,1,.49-.83a7.16,7.16,0,0,1,11.76,0Z" transform="translate(-88.83 -228.38)"/><path class="cls-1" d="M318.39,282.09c-2.66.14-5,2.67-5.36,5.75l-.12,1.09.58-.93a6.44,6.44,0,0,1,4.76-3,3.71,3.71,0,0,1,3.78,2l.43.89,0-1a5,5,0,0,0-1.17-3.61A3.67,3.67,0,0,0,318.39,282.09Z" transform="translate(-88.83 -228.38)"/><path class="cls-1" d="M282.94,282.58h-.11a5.5,5.5,0,0,0-4.06,1.71,5.43,5.43,0,0,0-1.47,3.9l0,.91.44-.79a5.63,5.63,0,0,1,5-2.57H283a7.1,7.1,0,0,1,5.73,3l.5.8,0-.94A6.46,6.46,0,0,0,282.94,282.58Z" transform="translate(-88.83 -228.38)"/><path class="cls-1" d="M279.66,278.15l.5.86,0-1a5.85,5.85,0,0,0-5.56-5.92h-.11a5.63,5.63,0,0,0-5.2,5.69l0,1.07.5-.95a5.25,5.25,0,0,1,4.73-2.7A6.11,6.11,0,0,1,279.66,278.15Z" transform="translate(-88.83 -228.38)"/><path class="cls-1" d="M315.78,278l.5.93,0-1.05a5.75,5.75,0,0,0-5.41-5.79h-.1a6,6,0,0,0-5.74,6l0,1,.5-.85a6.33,6.33,0,0,1,5.41-3A5.54,5.54,0,0,1,315.78,278Z" transform="translate(-88.83 -228.38)"/><path class="cls-1" d="M301.94,282.62a6.41,6.41,0,0,0-6.3,6l0,.93.49-.79a7.08,7.08,0,0,1,5.79-3H302a5.91,5.91,0,0,1,5.24,2.65l.45.79,0-.9a5.52,5.52,0,0,0-1.52-3.94A5.77,5.77,0,0,0,301.94,282.62Z" transform="translate(-88.83 -228.38)"/><path class="cls-1" d="M266.72,282a3.24,3.24,0,0,0-2.68,1.11,4.87,4.87,0,0,0-1.11,3.54l.05,1,.43-.92a3.33,3.33,0,0,1,3.46-1.86,6.11,6.11,0,0,1,4.49,2.92l.6,1-.14-1.13C271.43,284.59,269.19,282.12,266.72,282Z" transform="translate(-88.83 -228.38)"/><path class="cls-1" d="M328.24,277.38l.55,1.15-.07-1.27c-.15-2.62-1.65-4.66-3.5-4.75h-.12c-2,0-3.75,2.25-3.94,5.13l-.08,1.18.55-1a4.21,4.21,0,0,1,3.65-2.46A3.41,3.41,0,0,1,328.24,277.38Z" transform="translate(-88.83 -228.38)"/><path class="cls-1" d="M330.5,262.46l.34-1a.9.9,0,0,1,.79-.71,1.08,1.08,0,0,1,.49.14,3.49,3.49,0,0,1,1.15,1.18l1.34,2-.9-2.28a6.27,6.27,0,0,0-2-3,.76.76,0,0,0-1,.1,3.45,3.45,0,0,0-.29,2.43Z" transform="translate(-88.83 -228.38)"/><path class="cls-1" d="M334.86,276.47l.63,1.43-.15-1.56c-.18-1.84-.89-3.19-1.76-3.27s-1.81,1.57-2,3.83l-.14,1.52L332,277c.45-1,1.07-1.59,1.69-1.59C334.16,275.45,334.57,275.82,334.86,276.47Z" transform="translate(-88.83 -228.38)"/><path class="cls-1" d="M335.82,279.26h-.09c-.69.18-1.3,1.83-1.61,3.19l-.48,2.06.95-1.89a2.51,2.51,0,0,1,1-1.24.26.26,0,0,1,.3.07.61.61,0,0,1,.1.15l.44.88,0-1a3.87,3.87,0,0,0-.35-2.09A.39.39,0,0,0,335.82,279.26Z" transform="translate(-88.83 -228.38)"/><path class="cls-1" d="M328,265.17a4.93,4.93,0,0,0-1,3.38l0,1.16.46-1.06a2.17,2.17,0,0,1,2.38-1.55A3.35,3.35,0,0,1,332,269l.83,1.56-.36-1.73c-.45-2.14-1.61-3.85-2.84-4.15A1.63,1.63,0,0,0,328,265.17Z" transform="translate(-88.83 -228.38)"/><path class="cls-1" d="M334.36,270.6l.46-1.29c.1-.28.36-.77.72-.61a1.12,1.12,0,0,1,.43.47l.87,1.49-.41-1.68c-.11-.46-.53-2-1.1-2.32a.41.41,0,0,0-.54.09,4.16,4.16,0,0,0-.45,2.48Z" transform="translate(-88.83 -228.38)"/><path class="cls-1" d="M289.06,242.78l.38-.39a6.8,6.8,0,0,1,4.73-1.63,6.89,6.89,0,0,1,4.78,1.71l.31.33,0-.11.39.46-.23-1c-.39-1.67-2.66-2.94-5.28-3H294c-2.57,0-4.83,1.3-5.15,3l-.15.81.32-.32Z" transform="translate(-88.83 -228.38)"/><path class="cls-1" d="M304.18,243.36l.18-.22,0,.13.29-.35c.66-.8,2.21-1.14,3.92-.83a8.73,8.73,0,0,1,4.35,2.23l.56.57-.15-.89,0-.08a7.75,7.75,0,0,0-5.06-3.37l-.13,0a3.89,3.89,0,0,0-3.64.8,1.85,1.85,0,0,0-.41,1.45Z" transform="translate(-88.83 -228.38)"/><path class="cls-1" d="M296.74,248.84v.77l.46-.61a5.72,5.72,0,0,1,5-1.8,7.49,7.49,0,0,1,5.1,2.43l.68.82-.24-1c-.52-2.2-3-4.1-5.72-4.32a5.3,5.3,0,0,0-4.24,1.4A3.42,3.42,0,0,0,296.74,248.84Z" transform="translate(-88.83 -228.38)"/><path class="cls-1" d="M312.49,250.3l.1.69.36-.6c.6-1,2-1.42,3.65-1a7.59,7.59,0,0,1,3.9,2.48l1.09,1.31-.67-1.57a7.78,7.78,0,0,0-4.79-4.23,3,3,0,0,0-3.12.72A2.77,2.77,0,0,0,312.49,250.3Z" transform="translate(-88.83 -228.38)"/><path class="cls-1" d="M317.7,246.15l.09-.19,0,.07.24-.39a1.15,1.15,0,0,1,1-.45,3.74,3.74,0,0,1,1.39.32,9.18,9.18,0,0,1,2.71,1.89l.38-.33a9.87,9.87,0,0,0-3.65-3l-.09,0c-1.05-.45-1.91-.41-2.27.1a1.65,1.65,0,0,0,0,1.45Z" transform="translate(-88.83 -228.38)"/><path class="cls-1" d="M279.89,249.38l-.24,1,.67-.82a7.47,7.47,0,0,1,5.1-2.42,5.76,5.76,0,0,1,5,1.81l.47.61,0-.77a3.44,3.44,0,0,0-1-2.35,5.31,5.31,0,0,0-4.25-1.41C282.92,245.28,280.4,247.17,279.89,249.38Z" transform="translate(-88.83 -228.38)"/><path class="cls-1" d="M279.24,242c1.74-.29,3.32.06,4,.89l.23.29.06-.11.2.26.07-.61a1.87,1.87,0,0,0-.43-1.45,3.94,3.94,0,0,0-3.7-.83l-.12,0a7.64,7.64,0,0,0-5.06,3.35l-.17,1,.55-.56A8.69,8.69,0,0,1,279.24,242Z" transform="translate(-88.83 -228.38)"/><path class="cls-1" d="M329.89,281.21c-1.53.17-3,2.18-3.48,4.76l-.28,1.47.74-1.3a4.49,4.49,0,0,1,2.85-2.39,1.64,1.64,0,0,1,1.84,1.15L332,286l.05-1.17a4.42,4.42,0,0,0-.79-3A1.52,1.52,0,0,0,329.89,281.21Z" transform="translate(-88.83 -228.38)"/><path class="cls-1" d="M266.31,251.61l-.67,1.57,1.1-1.32a7.6,7.6,0,0,1,3.88-2.48c1.61-.39,3,0,3.63,1l.36.6.1-.69a2.76,2.76,0,0,0-.51-2.23,2.94,2.94,0,0,0-3.1-.71A7.8,7.8,0,0,0,266.31,251.61Z" transform="translate(-88.83 -228.38)"/><path class="cls-1" d="M259.37,260.34l-.56,1.74,1-1.52a5.57,5.57,0,0,1,3-2.37,2.43,2.43,0,0,1,3,1.28l.38.81.09-.89a3.84,3.84,0,0,0-.68-2.92,2.15,2.15,0,0,0-2.34-.6C261.69,256.32,260.05,258.21,259.37,260.34Z" transform="translate(-88.83 -228.38)"/><path class="cls-1" d="M267.24,245.35a3.87,3.87,0,0,1,1.4-.31,1.2,1.2,0,0,1,1.08.49l.21.36,0-.07.1.23.21-.64a1.64,1.64,0,0,0-.06-1.44c-.37-.53-1.23-.58-2.33-.11l-.09,0a9.76,9.76,0,0,0-3.72,3.08l.38.32A9.23,9.23,0,0,1,267.24,245.35Z" transform="translate(-88.83 -228.38)"/><path class="cls-1" d="M260.31,252.95c.88-.43,1.59-.3,1.87.34l.3.68.17-.72a2.52,2.52,0,0,0-.13-2c-.32-.43-.92-.47-1.64-.1a8.27,8.27,0,0,0-2.88,3.16l.41.28A6.16,6.16,0,0,1,260.31,252.95Z" transform="translate(-88.83 -228.38)"/><path class="cls-2" d="M266.5,294.36l-.09-.89-.38.81a2.5,2.5,0,0,1-3,1.33,5.56,5.56,0,0,1-3.07-2.39l-1-1.5.53,1.71c.68,2.17,2.33,4.06,3.93,4.52a2.86,2.86,0,0,0,.76.11,2.07,2.07,0,0,0,1.61-.73A3.9,3.9,0,0,0,266.5,294.36Z" transform="translate(-88.83 -228.38)"/><path class="cls-2" d="M262.6,299.87l-.3.69c-.29.67-1,.81-1.91.38a6.15,6.15,0,0,1-2-1.67l-.41.28a8.28,8.28,0,0,0,2.94,3.23,2,2,0,0,0,.9.25h0a.93.93,0,0,0,.77-.37,2.57,2.57,0,0,0,.15-2.06Z" transform="translate(-88.83 -228.38)"/><path class="cls-2" d="M280.63,304.17l-.66-.81.23,1c.49,2.24,3,4.15,5.75,4.35l.48,0h0a5.26,5.26,0,0,0,3.78-1.45,3.52,3.52,0,0,0,1-2.4l0-.78-.47.62a5.86,5.86,0,0,1-5,1.85A7.43,7.43,0,0,1,280.63,304.17Z" transform="translate(-88.83 -228.38)"/><path class="cls-2" d="M274.43,305.74a2.82,2.82,0,0,0,.53-2.26l-.1-.7-.36.61c-.61,1-2.05,1.45-3.68,1.07a7.55,7.55,0,0,1-3.93-2.5l-1.06-1.29.64,1.54a7.72,7.72,0,0,0,4.82,4.27,4.42,4.42,0,0,0,1.06.14A2.63,2.63,0,0,0,274.43,305.74Z" transform="translate(-88.83 -228.38)"/><path class="cls-2" d="M276.72,300.47a5.46,5.46,0,0,0,.64,0h0a4.36,4.36,0,0,0,3.23-1.34,4.46,4.46,0,0,0,1.15-3.24l0-.85-.44.73a4.83,4.83,0,0,1-4.83,2.07,6.91,6.91,0,0,1-4.85-2.86l-.69-1,.24,1.2A6.87,6.87,0,0,0,276.72,300.47Z" transform="translate(-88.83 -228.38)"/><path class="cls-2" d="M256.61,291.22l-.35,1c-.11.32-.34.71-.77.71a1,1,0,0,1-.47-.13,3.36,3.36,0,0,1-1.1-1.14l-1.32-2,.88,2.26a6.18,6.18,0,0,0,2,2.93,1,1,0,0,0,.5.16.65.65,0,0,0,.52-.26,3.47,3.47,0,0,0,.29-2.43Z" transform="translate(-88.83 -228.38)"/><path class="cls-2" d="M293.87,301.45h0a5.92,5.92,0,0,0,6.07-5.2l.07-.94-.53.78a7.21,7.21,0,0,1-11.22,0l-.52-.78.07.94A5.89,5.89,0,0,0,293.87,301.45Z" transform="translate(-88.83 -228.38)"/><path class="cls-2" d="M320.73,308.28a3.76,3.76,0,0,1-1.42.34,1.16,1.16,0,0,1-1-.45l-.29-.45-.16.51a1.67,1.67,0,0,0,0,1.46,1.09,1.09,0,0,0,.94.42,3.4,3.4,0,0,0,1.3-.32,9.67,9.67,0,0,0,3.51-2.89l-.37-.33A8.81,8.81,0,0,1,320.73,308.28Z" transform="translate(-88.83 -228.38)"/><path class="cls-2" d="M327.21,300.81c-.86.43-1.57.29-1.86-.36l-.3-.69-.17.73a2.53,2.53,0,0,0,.14,2,.89.89,0,0,0,.74.36,2,2,0,0,0,.89-.26,8.18,8.18,0,0,0,2.87-3.17l-.41-.28A6.08,6.08,0,0,1,327.21,300.81Z" transform="translate(-88.83 -228.38)"/><path class="cls-2" d="M297.58,304.73l-.46-.62v.78a3.45,3.45,0,0,0,1,2.38,5.11,5.11,0,0,0,3.69,1.42l.54,0c2.69-.22,5.21-2.14,5.73-4.37l.24-1-.68.83a7.49,7.49,0,0,1-5.1,2.46A5.6,5.6,0,0,1,297.58,304.73Z" transform="translate(-88.83 -228.38)"/><path class="cls-2" d="M327.82,293.43l.53-1.71-1,1.5a5.56,5.56,0,0,1-3.07,2.39,2.51,2.51,0,0,1-3-1.33l-.38-.81-.09.9a3.91,3.91,0,0,0,.71,3,2.08,2.08,0,0,0,1.62.73,2.81,2.81,0,0,0,.76-.11C325.48,297.5,327.14,295.6,327.82,293.43Z" transform="translate(-88.83 -228.38)"/><path class="cls-2" d="M310.33,300.47a5.43,5.43,0,0,0,.65,0,6.88,6.88,0,0,0,5.55-5.25l.24-1.2-.69,1a6.9,6.9,0,0,1-4.82,2.86,4.79,4.79,0,0,1-4.79-2.06l-.43-.73,0,.85a4.44,4.44,0,0,0,1.14,3.23A4.31,4.31,0,0,0,310.33,300.47Z" transform="translate(-88.83 -228.38)"/><path class="cls-2" d="M313.32,303.3l-.36-.61-.1.7a2.81,2.81,0,0,0,.52,2.26,2.53,2.53,0,0,0,2,.85,4.36,4.36,0,0,0,1.07-.14,7.77,7.77,0,0,0,4.77-4.26l.66-1.58-1.09,1.32a7.53,7.53,0,0,1-3.88,2.49C315.36,304.73,313.92,304.32,313.32,303.3Z" transform="translate(-88.83 -228.38)"/><path class="cls-2" d="M333.42,291.63a3.37,3.37,0,0,1-1.11,1.15,1,1,0,0,1-.47.13c-.43,0-.66-.38-.78-.71l-.35-1-.14,1a3.47,3.47,0,0,0,.29,2.44.66.66,0,0,0,.52.26,1,1,0,0,0,.5-.16,6.18,6.18,0,0,0,2-2.94l.88-2.27Z" transform="translate(-88.83 -228.38)"/><path class="cls-2" d="M299.64,311.64l.19-.84-.61.61a7.12,7.12,0,0,1-4.87,1.67,6.84,6.84,0,0,1-4.71-1.6l-.58-.59.16.81c.33,1.69,2.53,3,5.12,3h.06C297,314.64,299.25,313.34,299.64,311.64Z" transform="translate(-88.83 -228.38)"/><path class="cls-2" d="M287.66,317.16a9,9,0,0,1-4.2-1.36L282.3,315l.81,1.17c.73,1,2.71,1.93,4.73,2.11q.39,0,.76,0a4.69,4.69,0,0,0,3.22-1,1.24,1.24,0,0,0,.35-.68l.1-.62-.49.38A6.38,6.38,0,0,1,287.66,317.16Z" transform="translate(-88.83 -228.38)"/><path class="cls-2" d="M283.93,311.15l-.06-.59-.38.45c-.71.83-2.31,1.18-4.07.88a8.64,8.64,0,0,1-4.33-2.1l-1.1-1,.7,1.34a7.57,7.57,0,0,0,5.09,3.37,6.35,6.35,0,0,0,1.12.1,3.36,3.36,0,0,0,2.58-1A1.91,1.91,0,0,0,283.93,311.15Z" transform="translate(-88.83 -228.38)"/><path class="cls-2" d="M278.35,314.47l-.29.27c-.45.43-1.68.46-3.06,0a11.17,11.17,0,0,1-2.93-1.41l-.31.39a10.8,10.8,0,0,0,3.74,2.12,5.66,5.66,0,0,0,1.63.29,1.46,1.46,0,0,0,1.27-.47.94.94,0,0,0,.06-.85Z" transform="translate(-88.83 -228.38)"/><path class="cls-2" d="M313.87,309.83l.78-1.41-1.17,1.11a8.77,8.77,0,0,1-4.22,2.11c-1.72.33-3.28,0-4-.8l-.37-.45-.07.58a1.87,1.87,0,0,0,.41,1.46,3.05,3.05,0,0,0,2.4.9,6.08,6.08,0,0,0,1.19-.12A7.84,7.84,0,0,0,313.87,309.83Z" transform="translate(-88.83 -228.38)"/><path class="cls-2" d="M305.63,315.55A9.35,9.35,0,0,1,301.5,317a6,6,0,0,1-4-.68l-.46-.37.05.58a1.2,1.2,0,0,0,.33.7,4.08,4.08,0,0,0,2.92.91,8.2,8.2,0,0,0,1-.06,7.33,7.33,0,0,0,4.7-2.17l.94-1.26Z" transform="translate(-88.83 -228.38)"/><path class="cls-2" d="M313.54,314.4c-1.31.44-2.49.44-2.92,0l-.28-.27-.13.36a1,1,0,0,0,0,.87,1.27,1.27,0,0,0,1.12.43,5.31,5.31,0,0,0,1.64-.32,11.08,11.08,0,0,0,3.53-2l-.3-.4A11.25,11.25,0,0,1,313.54,314.4Z" transform="translate(-88.83 -228.38)"/><path class="cls-2" d="M270.16,307.95l-.29.45a1.27,1.27,0,0,1-1.11.48,4,4,0,0,1-1.45-.32,8.83,8.83,0,0,1-2.68-1.79l-.37.33a9.53,9.53,0,0,0,3.65,3,3.5,3.5,0,0,0,1.32.31,1.18,1.18,0,0,0,1-.45,1.68,1.68,0,0,0,.07-1.47Z" transform="translate(-88.83 -228.38)"/></svg>